<?xml version="1.0" encoding="UTF-8"?>
<svg width="1024px" height="1024px" viewBox="0 0 1024 1024" version="1.1" xmlns="http://www.w3.org/2000/svg" xmlns:xlink="http://www.w3.org/1999/xlink">
    <defs>
        <filter x="-8.8%" y="-8.8%" width="117.6%" height="117.6%" filterUnits="objectBoundingBox" id="filter-1">
            <feGaussianBlur stdDeviation="23" in="SourceGraphic"></feGaussianBlur>
        </filter>
        <radialGradient cx="21.9755407%" cy="19.9105825%" fx="21.9755407%" fy="19.9105825%" r="133.941434%" id="radialGradient-2">
            <stop stop-color="#FFFFFF" stop-opacity="0" offset="0%"></stop>
            <stop stop-color="#000000" offset="100%"></stop>
        </radialGradient>
    </defs>
    <g id="01" stroke="none" stroke-width="1" fill="none" fill-rule="evenodd">

        <g id="img"  x="0" y="0" width="1024" height="1024"></g> 
    
        <circle id="board" stroke="rgba(0,0,0,0.6)" stroke-width="100" cx="512" cy="512" r="350"></circle>
        <circle id="board2" stroke="#000000" stroke-width="4" cx="512" cy="512" r="300" opacity="0.6"></circle>
        <path stroke="none" 
        d="m511.285742,875.571469c200.400479,0 362.857165,-162.456687 362.857165,-362.857165c0,-200.400479 -162.456687,-362.857165 -362.857165,-362.857165c-200.400479,0 -362.857165,162.456687 -362.857165,362.857165c0,200.400479 162.456687,362.857165 362.857165,362.857165z" id="circle-path" ></path> 

        <text>
            <textPath xlink:href="#circle-path"  id="font" 
            spacing='auto'
            lengthAdjust='spacingAndGlyphs'
            font-family="PingFangSC-Semibold, PingFang SC" 
                font-size="56" 
                font-weight="500" 
                fill="#FFFFFF"
                >MIXDAO</textPath>
            </text>  
        
            <path d="M0,0 L1024,0 L1024,1024 L0,1024 L0,0 Z M512,912 C732.9139,912 912,732.9139 912,512 C912,291.0861 732.9139,112 512,112 C291.0861,112 112,291.0861 112,512 C112,732.9139 291.0861,912 512,912 Z" id="mask" fill="#000000"></path>
            
            <circle id="board-01" stroke="#FFFFFF" stroke-width="8" cx="512" cy="512" r="390"></circle>
            <circle id="board-02" stroke="#FF760F" stroke-width="20" opacity="0.7" filter="url(#filter-1)" cx="512" cy="512" r="410"></circle>
            <rect id="light" fill="url(#radialGradient-2)" opacity="0.902189367" style="mix-blend-mode: hard-light;" x="0" y="0" width="1024" height="1024"></rect> 
    </g>
</svg>